<?xml version="1.0" encoding="utf-8"?>
<!-- Generator: Adobe Illustrator 23.0.1, SVG Export Plug-In . SVG Version: 6.00 Build 0)  -->
<svg version="1.1" id="Layer_1" xmlns="http://www.w3.org/2000/svg" xmlns:xlink="http://www.w3.org/1999/xlink" x="0px" y="0px"
	 viewBox="0 0 800 800" style="enable-background:new 0 0 800 800;" xml:space="preserve">
<style type="text/css">
	.st0{fill:#222222;}
</style>
<path id="XMLID_1545_" class="st0" d="M333.7,458l24.6-26.5v53.8L333.7,458z M255.2,438.1v12.2h35.3v13.7h-35.3v13.4h39.5l18.3-19.8
	l-17.6-19.6L255.2,438.1L255.2,438.1z M691.8,448.2c5.5,5.6,8,12.6,8,22c0,20.2-13.5,32.3-36.3,32.3h-31.2c-4.6,0-8.5-2.8-10.2-6.7
	c-6.1,4.3-14.2,6.7-24.1,6.7h-31.3c-1.8,0-3.3-0.5-4.8-1.2c-1.5,0.7-3.1,1.2-4.8,1.2h-53.6c-1.8,0-3.4-0.5-4.9-1.2
	c-1.5,0.7-3.1,1.2-4.9,1.2h-16.2c-6.1,0-11-4.9-11-11v-9.8c0-1,0-2.4-0.1-3.6c-0.7-0.1-1.8-0.1-3.2-0.1h-6v13.5
	c0,6.1-4.9,11-11.1,11h-16.2c-6.1,0-11-4.9-11-11v-17.1c-5.7,3.4-13.6,5.6-24.4,5.6h-8.9v11.5c0,6.1-4.9,11-11,11h-31.2
	c-3.1,0-6.2-1.3-8.3-3.7l-11.6-13.1l-12.2,13.3c-2.1,2.3-5.1,3.5-8.2,3.5h-63.4c-6.1,0-11.1-4.9-11.1-11v-67.1
	c0-6.2,5-11.1,11.1-11.1H304c3.1,0,6.2,1.3,8.3,3.7l11.7,13l12.2-13.1c2.1-2.3,5-3.5,8.1-3.5h51.3c11.2,0,19.1,2.5,24.8,6.2
	c1.8-3.6,5.4-6.2,9.8-6.2h37.1c8.5,0,16.7,0.3,24.5,4.5c0.8,0.5,1.4,1.1,2.1,1.7c1.8-3.6,5.5-6.1,9.8-6.1h53.5
	c4.2,0,7.6,2.4,9.5,5.9c5.3-3.6,12.3-5.9,21.1-5.9H620c4.8,0,8.8,3.1,10.3,7.4c5.5-4.4,13-7.4,23-7.4h32c6.1,0,11,4.9,11,11.1v14.2
	c0,4-2,7.4-5.1,9.4C691.5,448,691.6,448.1,691.8,448.2L691.8,448.2z M422.3,446.3c0-18.6-14.3-22.1-27.1-22.1H344l-20.4,22l-19.8-22
	h-64.6v67.2h63.5l20.6-22.3l19.7,22.3h31.2v-22.5h20C408.3,468.9,422.3,465,422.3,446.3L422.3,446.3z M483.1,460.2
	c4.2-1.7,11.4-7.1,11.4-17.9c0-7.6-3.1-11.9-8.2-14.9c-5.3-2.8-11.2-3.1-19.3-3.1h-37.1v67.2H446v-24.5h17.1c5.9,0,9.5,0.6,11.7,2.9
	c3.1,3.1,2.6,9.1,2.6,13.1v8.4h16.2v-13.3c-0.1-5.9-0.4-9-2.7-12.3C489.6,463.9,486.6,461.5,483.1,460.2L483.1,460.2z M557,424.3
	h-53.6v67.2H557v-13.9l-37.7,0v-13.4h36.7v-13.7h-36.7v-12.2H557V424.3z M623,470.2c0-6.9-1.7-11-4.8-14.2
	c-3.6-3.7-9.5-5.2-18.3-5.4l-8.6-0.3c-2.8,0-4.5-0.2-6.2-0.7c-2-0.8-3.5-2.5-3.5-5c0-2.1,0.6-3.8,2.4-4.9c1.6-1,3.5-1.2,6.4-1.2
	h29.5v-14.2h-32.1c-16.9,0-23,10.2-23,20c0,21.2,18.8,20.3,33.8,20.8c2.8,0,4.5,0.4,5.7,1.5c1.1,1,1.9,2.5,1.9,4.4
	c0,1.8-0.8,3.3-1.9,4.4c-1.3,1.2-3.5,1.7-6.5,1.7h-31.1v14.4h31.2C614,491.4,623,484.7,623,470.2L623,470.2z M688.6,470.2
	c0-6.9-1.7-11-4.8-14.2c-3.7-3.7-9.6-5.2-18.3-5.4l-8.7-0.3c-2.7,0-4.5-0.2-6.2-0.7c-2-0.8-3.5-2.5-3.5-5c0-2.1,0.6-3.8,2.4-4.9
	c1.6-1,3.5-1.2,6.5-1.2h29.4v-14.2h-32.1c-16.9,0-23,10.2-23,20c0,21.2,18.8,20.3,33.9,20.8c2.8,0,4.4,0.4,5.7,1.5
	c1.2,1,1.9,2.5,1.9,4.4c0,1.8-0.8,3.3-1.9,4.4c-1.3,1.2-3.5,1.7-6.5,1.7h-31.1v14.4h31.2C679.6,491.4,688.6,484.7,688.6,470.2
	L688.6,470.2z M395.2,438.1h-20.9v17.1H395c6.2,0,10-3.1,10-8.9C405.1,440.5,401.1,438.1,395.2,438.1L395.2,438.1z M404.7,336.2
	c2.1-1.1,3.3-3.5,3.3-6.4c0-2.9-1.3-5-3.3-6c-1.8-1-4.8-1.2-7.6-1.2h-19.8v14.9h19.5C399.9,337.5,402.5,337.5,404.7,336.2
	L404.7,336.2z M473.4,439.4c-1.9-1.2-4.8-1.2-7.6-1.2H446v15.1h19.6c3.1,0,5.7-0.1,8-1.4c2.1-1.3,3.3-3.5,3.3-6.4
	C476.8,442.5,475.5,440.5,473.4,439.4L473.4,439.4z M532.8,320l-11,26.8h22.2L532.8,320z M140.7,346.8h21.9L151.7,320L140.7,346.8z
	 M230.6,386.9c-4.4,0-8.3-2.6-10.1-6.6l-2.1-4.8v0.3c0,6.1-4.9,11-11,11h-32.7c-4.4,0-8.5-2.7-10.2-6.9l-3.3-8.1h-18.6l-3.4,8.1
	c-1.7,4.2-5.8,6.9-10.2,6.9h-17.6c-3.7,0-7.2-1.8-9.2-4.9c-2.1-3.1-2.4-7-0.9-10.5l28.7-67.2c1.8-4,5.7-6.7,10.2-6.7h23.8
	c4.4,0,8.4,2.6,10.2,6.7l6,14.1v-9.6c0-6.1,4.9-11.1,11.1-11.1h26.2c4.3,0,8.2,2.5,10,6.5l10.5,22.8l9.5-22.5
	c1.8-4.1,5.7-6.8,10.2-6.8h26.8c2.3,0,4.2,0.8,6,2c1.7-1.2,3.7-2,6-2H350c2.1,0,3.9,0.7,5.6,1.7c1.7-1,3.5-1.7,5.6-1.7H398
	c9.5,0,17.5,0.4,25,4.7c0.8,0.4,1.3,1,2,1.5c1.8-3.6,5.5-6.2,9.8-6.2h16.4c5.5,0,9.9,4.2,10.8,9.4c7.1-6.2,16.9-9.4,30.1-9.4h15.5
	c2.5,0,4.8,0.8,6.7,2.2c1.8-1.4,4.2-2.2,6.6-2.2H545c4.4,0,8.4,2.7,10.1,6.7l5.9,13.8v-9.4c0-6.1,4.9-11.1,11-11.1h24.4
	c3.9,0,7.4,2.1,9.5,5.4l7.7,12.6v-7c0-6.1,4.9-11,11.1-11h16.4c6.1,0,11,4.9,11,11v67.2c0,6.1-4.9,11-11,11h-22.7
	c-3.9,0-7.5-2-9.5-5.4l-9.8-16.3v10.6c0,6.1-4.9,11-11,11h-32.6c-4.6,0-8.5-2.7-10.3-6.9l-3.3-8.1h-18.5l-3.2,8.1
	c-1.7,4.2-5.7,6.9-10.3,6.9h-18.8c-7.1,0-19.9-1.3-29.1-8.9c-1,5.1-5.3,8.9-10.6,8.9h-16.4c-1.8,0-3.5-0.6-5.1-1.3
	c-1.5,0.8-3.1,1.3-4.9,1.3H409c-6.1,0-11-4.9-11.1-11l-0.1-8.4l0.1-1.5c0-0.8,0-2.2-0.1-3.3c-0.7-0.1-1.7-0.1-3.1-0.1h-6.4v13.3
	c0,6.1-4.9,11-11,11h-16c-2.1,0-3.9-0.7-5.6-1.7c-1.7,1-3.5,1.7-5.6,1.7h-53.6c-2.3,0-4.3-0.8-6-1.9c-1.8,1.1-3.7,1.9-6,1.9h-16.4
	c-6.2,0-11.1-4.9-11.1-11v-0.3l-2.1,4.7c-1.8,4-5.7,6.6-10.1,6.6L230.6,386.9L230.6,386.9L230.6,386.9z M459.2,342.7
	c0,12.2,2.9,19.9,8.6,25.6c5.6,5.7,15.5,7.4,23.2,7.4H510l6-15h33.4l6.2,15h32.6v-50.4l30.4,50.4h22.7v-67.2H625v46.8l-28.3-46.8
	h-24.4v63.5l-27.1-63.5H521l-22.7,52.9h-7.2c-4.2,0-8.7-0.8-11.2-3.5c-3-3.4-4.4-8.5-4.4-15.8c0-7,1.8-12.4,4.6-15.2
	c3.1-3.1,6.5-4,12.3-4h15.2v-14.4h-15.6c-11,0-19.2,2.5-24.4,7.8C461,323.6,459.2,332.8,459.2,342.7L459.2,342.7z M492.6,334.1
	c-3.8,0-4.2,0.4-4.6,0.8c-0.1,0.3-1.2,2.6-1.2,7.3c0,4.6,0.7,6.9,1.2,7.8c0.6,0.2,1.7,0.4,3.1,0.4l7-16.2L492.6,334.1z M435,375.9
	h16.4v-67.2H435V375.9z M361.2,375.9h16v-24.4h17.2c5.8,0,9.4,0.5,11.7,2.9c2.9,3.2,2.5,9,2.5,13.1l0.1,8.4H425v-13.1
	c0-6-0.4-9-2.7-12.3c-1.4-1.9-4.4-4.3-8-5.6c4.2-1.7,11.3-7.2,11.3-17.9c0-7.5-3.1-11.9-8.1-14.9c-5.2-3-11.2-3.1-19.4-3.1h-36.9
	L361.2,375.9L361.2,375.9L361.2,375.9z M296.4,375.9H350v-13.9h-37.6v-13.3h36.7v-13.9h-36.7v-12.1H350v-14h-53.6V375.9z
	 M230.6,375.9h14.1l23.3-52.6l0.1,52.6h16.5v-67.2h-26.8l-19.3,45.6l-21.1-45.6h-26.2v63.6l-27.3-63.6h-23.8l-28.8,67.2h17.5l6.2-15
	h33.4l6.2,15h32.7v-52.7L230.6,375.9z"/>
</svg>
