<?xml version="1.0" encoding="iso-8859-1"?>
<!-- Generator: Adobe Illustrator 18.1.1, SVG Export Plug-In . SVG Version: 6.00 Build 0)  -->
<svg version="1.1" id="Capa_1" xmlns="http://www.w3.org/2000/svg" xmlns:xlink="http://www.w3.org/1999/xlink" x="0px" y="0px"
	 viewBox="0 0 56 56" style="enable-background:new 0 0 56 56;" xml:space="preserve">
<g>
	<path style="fill:#010002;" d="M54.5,20.801h-53c-0.829,0-1.5,0.671-1.5,1.5v13.585c0,6.341,5.159,11.5,11.5,11.5h33
		c6.341,0,11.5-5.159,11.5-11.5V22.301C56,21.472,55.329,20.801,54.5,20.801z M53,35.887c0,4.687-3.813,8.5-8.5,8.5h-33
		c-4.687,0-8.5-3.813-8.5-8.5V23.801h50V35.887z"/>
	<path style="fill:#010002;" d="M1.908,18.801h52.184c0.473,0,0.917-0.223,1.201-0.601c0.283-0.378,0.372-0.868,0.239-1.321
		c-1.425-4.867-5.961-8.266-11.031-8.266h-33c-5.07,0-9.606,3.399-11.031,8.266c-0.133,0.453-0.044,0.943,0.239,1.321
		C0.991,18.578,1.436,18.801,1.908,18.801z M11.5,11.613h33c3.036,0,5.812,1.649,7.317,4.188H4.183
		C5.688,13.262,8.464,11.613,11.5,11.613z"/>
	<path style="fill:#010002;" d="M11.389,36.492h14.918c2.577,0,4.674-1.937,4.674-4.316c0-2.38-2.097-4.316-4.674-4.316H11.389
		c-2.577,0-4.674,1.936-4.674,4.316C6.715,34.556,8.812,36.492,11.389,36.492z M11.389,30.858h14.918
		c0.907,0,1.674,0.603,1.674,1.316c0,0.713-0.767,1.316-1.674,1.316H11.389c-0.907,0-1.674-0.603-1.674-1.316
		C9.715,31.461,10.482,30.858,11.389,30.858z"/>
	<path style="fill:#010002;" d="M44.283,37.534c2.955,0,5.358-2.404,5.358-5.358c0-2.955-2.404-5.358-5.358-5.358
		c-2.955,0-5.359,2.404-5.359,5.358C38.924,35.13,41.328,37.534,44.283,37.534z M44.283,29.816c1.3,0,2.358,1.058,2.358,2.358
		c0,1.3-1.058,2.358-2.358,2.358c-1.301,0-2.359-1.058-2.359-2.358C41.924,30.874,42.982,29.816,44.283,29.816z"/>
</g>
<g>
</g>
<g>
</g>
<g>
</g>
<g>
</g>
<g>
</g>
<g>
</g>
<g>
</g>
<g>
</g>
<g>
</g>
<g>
</g>
<g>
</g>
<g>
</g>
<g>
</g>
<g>
</g>
<g>
</g>
</svg>
