<svg id="Layer_1" data-name="Layer 1" xmlns="http://www.w3.org/2000/svg" xmlns:xlink="http://www.w3.org/1999/xlink" viewBox="0 0 1207.63 699.13"><defs><style>.cls-1{fill:#1a1a1a;}.cls-2{fill:url(#radial-gradient);}</style><radialGradient id="radial-gradient" cx="603.82" cy="680.07" r="602.77" gradientUnits="userSpaceOnUse"><stop offset="0.84" stop-color="#090909"/><stop offset="0.9" stop-color="#0b0b0b"/><stop offset="0.93" stop-color="#121212"/><stop offset="0.94" stop-color="#1d1d1d"/><stop offset="0.96" stop-color="#2e2e2e"/><stop offset="0.97" stop-color="#444"/><stop offset="0.98" stop-color="#606060"/><stop offset="0.98" stop-color="gray"/><stop offset="0.99" stop-color="#a4a4a4"/><stop offset="1" stop-color="#ccc"/></radialGradient></defs><path class="cls-1" d="M1092.81,661h-978c-2.11-9.18-2-18.53-2-27.85q0-288.75,0-577.49c0-7.82.28-15.66.76-23.47,1-16.13,10.64-27.27,26.44-30.87C141.62,1,143.21.44,144.81,0h918c1.76.48,3.51,1,5.29,1.43C1083.33,4.92,1093,16.08,1094,31.68c.48,7.48.8,15,.8,22.48q.06,288.24-.13,576.48C1094.68,640.74,1095.16,651,1092.81,661Z"/><rect x="141.82" y="53.5" width="924" height="575"/><path class="cls-2" d="M1110.07,699.13H98.07c-1.81-.21-3.61-.57-5.42-.61A384.15,384.15,0,0,1,46,694.6c-14.31-2.09-28.14-6-41.9-10.23a5.67,5.67,0,0,1-4-5.44c0-5.1.07-10.2-.08-15.3-.06-2.15.42-3,2.57-2.52a10.27,10.27,0,0,0,2,0h1202.5c.13,4.82-.07,9.68.46,14.45.62,5.64-1.56,8.27-7,10a268,268,0,0,1-66.11,12C1126.31,698,1118.19,698.59,1110.07,699.13Z"/></svg>